<svg height='100px' width='100px'  fill="#000000" xmlns="http://www.w3.org/2000/svg" viewBox="0 0 32 32" x="0px" y="0px"><title>Backpack</title><g><path d="M27,2H5A3,3,0,0,0,2,5V9a3,3,0,0,0,3,3V25a5,5,0,0,0,5,5H22a5,5,0,0,0,5-5V12a3,3,0,0,0,3-3V5A3,3,0,0,0,27,2Zm-6,9v4a1,1,0,0,1-2,0V4h2Zm-4-1H15V4h2Zm-4,1v4a1,1,0,0,1-2,0V4h2ZM4,9V5A1,1,0,0,1,5,4H9v6H5A1,1,0,0,1,4,9Zm8,19V24a1,1,0,0,1,1-1h6a1,1,0,0,1,1,1v4Zm13-3a3,3,0,0,1-3,3V24a3,3,0,0,0-3-3H13a3,3,0,0,0-3,3v4a3,3,0,0,1-3-3V12H9v3a3,3,0,0,0,6,0V12h2v3a3,3,0,0,0,6,0V12h2ZM28,9a1,1,0,0,1-1,1H23V4h4a1,1,0,0,1,1,1Z"></path></g></svg>